<?xml version="1.0" encoding="UTF-8"?>
<!-- Generator: Adobe Illustrator 16.0.3, SVG Export Plug-In . SVG Version: 6.00 Build 0)  -->
<!DOCTYPE svg PUBLIC "-//W3C//DTD SVG 1.1//EN" "http://www.w3.org/Graphics/SVG/1.1/DTD/svg11.dtd">
<svg xmlns="http://www.w3.org/2000/svg" xmlns:xlink="http://www.w3.org/1999/xlink" version="1.1" id="Ebene_1" x="0px" y="0px" width="120px" height="120px" viewBox="0 0 120 120" xml:space="preserve">
<g>
	<g>
		<defs>
			
				<rect id="SVGID_1_" x="3.9" y="31.12" transform="matrix(-0.9028 0.4301 -0.4301 -0.9028 106.1669 111.4312)" width="73.18" height="73.188"/>
		</defs>
		<clipPath id="SVGID_2_">
			<use xlink:href="#SVGID_1_"/>
		</clipPath>
		<path clip-path="url(#SVGID_2_)" fill="#6F93B5" d="M31.037,47.884c5.474-2.609,11.083-2.898,16.79-0.873    c5.729,2.041,9.902,5.792,12.508,11.263c2.604,5.467,2.89,11.074,0.853,16.784c-2.012,5.731-5.78,9.882-11.256,12.488    c-5.476,2.611-11.063,2.915-16.791,0.874c-5.717-2.017-9.879-5.778-12.483-11.246c-2.605-5.466-2.902-11.068-0.878-16.799    C21.815,54.662,25.562,50.492,31.037,47.884 M10.517,88.985c0.377,0.191,0.762,0.225,1.166,0.11l8.42-2.58    c1.069,1.2,2.33,2.337,3.796,3.41c-0.182,0.961-0.475,2.332-0.883,4.144c-0.413,1.796-0.694,3.086-0.826,3.901    c-0.082,0.427-0.043,0.807,0.118,1.146c0.179,0.375,0.438,0.653,0.773,0.847c1.86,1.023,5.371,2.308,10.542,3.844    c0.464,0.165,0.902,0.157,1.3-0.034c0.431-0.204,0.721-0.515,0.893-0.902l3.869-7.492c1.463,0.04,3.003-0.045,4.626-0.25    l4.979,7.344c0.203,0.362,0.513,0.584,0.938,0.689c0.414,0.096,0.818,0.055,1.222-0.137l9.555-4.549    c0.826-0.397,1.15-1.042,0.971-1.943c-0.307-1.605-1.17-4.475-2.563-8.597c1.147-1.07,2.184-2.241,3.134-3.493l8.146,1.814    c0.523,0.057,0.961,0.017,1.303-0.146c0.635-0.302,1.494-1.957,2.591-4.988c1.092-3.015,1.776-5.231,2.045-6.67    c0.121-0.409,0.094-0.8-0.085-1.176c-0.173-0.364-0.492-0.659-0.948-0.874c-3.254-1.526-5.732-2.777-7.423-3.741    c0.068-1.325,0.005-2.896-0.19-4.712l7.392-4.984c0.311-0.225,0.513-0.55,0.593-0.973c0.075-0.421,0.028-0.817-0.132-1.155    l-4.546-9.548c-0.18-0.375-0.459-0.659-0.827-0.852c-0.367-0.181-0.76-0.224-1.155-0.097l-8.447,2.53    c-1.082-1.161-2.345-2.283-3.774-3.374c0.168-0.957,0.468-2.33,0.882-4.128c0.406-1.795,0.685-3.098,0.826-3.903    c0.083-0.424,0.039-0.818-0.123-1.158c-0.191-0.4-0.444-0.664-0.755-0.81c-1.728-0.961-5.251-2.268-10.576-3.92    c-0.485-0.123-0.917-0.1-1.287,0.076c-0.433,0.207-0.705,0.506-0.843,0.88l-3.917,7.514c-1.463-0.042-3.003,0.045-4.632,0.251    l-4.972-7.345c-0.206-0.348-0.515-0.586-0.928-0.68c-0.426-0.108-0.83-0.053-1.229,0.137l-9.554,4.551    c-0.833,0.397-1.162,1.031-0.978,1.929c0.315,1.621,1.166,4.479,2.569,8.597c-1.144,1.082-2.188,2.241-3.145,3.498l-8.121-1.766    c-0.511-0.11-0.955-0.082-1.326,0.094c-0.629,0.301-1.496,1.975-2.597,5.024c-1.099,3.033-1.778,5.249-2.032,6.633    c-0.077,0.498-0.057,0.889,0.081,1.177c0.161,0.34,0.476,0.619,0.919,0.824c3.024,1.408,5.506,2.658,7.431,3.742    c-0.084,1.669-0.014,3.253,0.214,4.762l-7.43,5.014c-0.29,0.201-0.469,0.519-0.554,0.943c-0.082,0.424-0.036,0.817,0.125,1.155    l4.548,9.548C9.864,88.515,10.142,88.797,10.517,88.985"/>
	</g>
	<g>
		<defs>
			
				<rect id="SVGID_3_" x="79.653" y="45.518" transform="matrix(-0.6284 0.7779 -0.7779 -0.6284 210.8785 28.331)" width="38.038" height="38.04"/>
		</defs>
		<clipPath id="SVGID_4_">
			<use xlink:href="#SVGID_3_"/>
		</clipPath>
		<path clip-path="url(#SVGID_4_)" fill="#6F93B5" d="M89.818,57.389c1.973-2.441,4.528-3.833,7.648-4.165    c3.134-0.329,5.921,0.49,8.362,2.462c2.438,1.972,3.829,4.526,4.156,7.649c0.342,3.127-0.488,5.912-2.464,8.355    c-1.972,2.442-4.514,3.836-7.647,4.165c-3.121,0.337-5.907-0.489-8.35-2.461c-2.439-1.969-3.832-4.522-4.168-7.65    C87.026,62.62,87.846,59.834,89.818,57.389 M89.401,81.24c0.217,0.005,0.407-0.066,0.568-0.209l3.369-3.102    c0.771,0.322,1.615,0.572,2.545,0.747c0.13,0.492,0.301,1.199,0.517,2.138c0.21,0.937,0.366,1.604,0.49,2.017    c0.056,0.218,0.159,0.388,0.312,0.512c0.168,0.133,0.353,0.208,0.551,0.225c1.102,0.059,3.037-0.128,5.809-0.568    c0.255-0.027,0.454-0.13,0.601-0.309c0.153-0.192,0.224-0.401,0.216-0.625l0.129-4.38c0.697-0.309,1.399-0.693,2.114-1.156    l3.981,2.323c0.176,0.124,0.374,0.16,0.599,0.113c0.212-0.046,0.393-0.156,0.539-0.337l3.457-4.279    c0.297-0.371,0.305-0.745,0.02-1.127c-0.504-0.686-1.555-1.837-3.133-3.456c0.298-0.758,0.521-1.54,0.685-2.344l4.226-0.977    c0.259-0.09,0.455-0.208,0.579-0.36c0.23-0.283,0.26-1.253,0.093-2.919c-0.166-1.659-0.342-2.854-0.538-3.586    c-0.037-0.218-0.137-0.397-0.305-0.532c-0.163-0.133-0.378-0.201-0.639-0.198c-1.871,0.015-3.313-0.013-4.322-0.086    c-0.268-0.638-0.649-1.359-1.147-2.166l2.346-3.998c0.094-0.174,0.117-0.373,0.06-0.589c-0.06-0.213-0.171-0.39-0.319-0.512    l-4.276-3.454c-0.17-0.137-0.363-0.206-0.582-0.214c-0.211-0.002-0.403,0.067-0.56,0.215l-3.394,3.083    c-0.769-0.302-1.611-0.545-2.525-0.734c-0.138-0.487-0.304-1.198-0.514-2.133c-0.214-0.933-0.375-1.607-0.49-2.016    c-0.056-0.218-0.166-0.392-0.317-0.515c-0.18-0.144-0.358-0.21-0.535-0.209c-1.026-0.062-2.973,0.115-5.84,0.537    c-0.256,0.053-0.452,0.159-0.586,0.326c-0.155,0.195-0.218,0.396-0.196,0.602l-0.149,4.403c-0.695,0.309-1.396,0.694-2.115,1.158    l-3.98-2.328c-0.174-0.116-0.371-0.158-0.588-0.109c-0.222,0.046-0.399,0.163-0.543,0.339l-3.456,4.28    c-0.303,0.374-0.313,0.745-0.024,1.125c0.51,0.689,1.551,1.837,3.134,3.453c-0.293,0.764-0.523,1.541-0.688,2.344l-4.203,0.999    c-0.265,0.063-0.466,0.174-0.601,0.341c-0.229,0.283-0.258,1.261-0.087,2.937c0.164,1.669,0.343,2.863,0.534,3.565    c0.076,0.251,0.173,0.43,0.303,0.533c0.152,0.125,0.363,0.185,0.615,0.18c1.735-0.02,3.179,0.011,4.325,0.086    c0.332,0.801,0.723,1.527,1.168,2.186l-2.355,4.019c-0.091,0.16-0.105,0.346-0.048,0.563c0.056,0.22,0.167,0.395,0.316,0.516    l4.276,3.456C88.987,81.167,89.183,81.236,89.401,81.24"/>
	</g>
	<g>
		<path fill="#6F93B5" d="M102.807,71.354h-7.953c-1.456,0-2.431-0.884-2.431-2.357c0-2.058,0.482-5.216,3.149-5.216    c0.311,0,1.438,1.267,3.258,1.267c1.821,0,2.949-1.267,3.259-1.267c2.666,0,3.149,3.158,3.149,5.216    C105.238,70.471,104.265,71.354,102.807,71.354z"/>
		<path fill="#6F93B5" d="M98.83,64.364c-1.93,0-3.492-1.566-3.492-3.497c0-1.928,1.563-3.492,3.492-3.492    c1.933,0,3.495,1.564,3.495,3.492C102.325,62.798,100.763,64.364,98.83,64.364z"/>
	</g>
	<g>
		<g>
			<defs>
				
					<rect id="SVGID_5_" x="66.694" y="18.122" transform="matrix(-0.2842 0.9588 -0.9588 -0.2842 131.4026 -36.5548)" width="25.306" height="25.307"/>
			</defs>
			<clipPath id="SVGID_6_">
				<use xlink:href="#SVGID_5_"/>
			</clipPath>
			<path clip-path="url(#SVGID_6_)" fill="#6F93B5" d="M72.514,28.75c0.559-1.884,1.708-3.299,3.432-4.237     c1.737-0.939,3.547-1.129,5.43-0.571c1.883,0.559,3.298,1.705,4.234,3.436c0.944,1.729,1.128,3.538,0.568,5.425     c-0.56,1.886-1.697,3.3-3.433,4.237c-1.727,0.94-3.536,1.126-5.419,0.569c-1.885-0.558-3.301-1.702-4.242-3.434     C72.146,32.445,71.954,30.639,72.514,28.75 M77.881,43.4c0.136-0.052,0.232-0.145,0.297-0.274l1.287-2.761     c0.555,0.002,1.139-0.058,1.753-0.187c0.204,0.269,0.49,0.661,0.858,1.185c0.367,0.522,0.636,0.893,0.816,1.115     c0.088,0.119,0.197,0.197,0.32,0.235c0.139,0.039,0.271,0.037,0.397-0.003c0.692-0.241,1.833-0.848,3.426-1.821     c0.149-0.081,0.249-0.196,0.292-0.341c0.046-0.158,0.036-0.304-0.027-0.438l-1.029-2.727c0.35-0.368,0.685-0.783,1.005-1.248     l3.04,0.418c0.14,0.031,0.269,0.003,0.395-0.082c0.12-0.083,0.204-0.197,0.248-0.345L92,32.617     c0.089-0.304-0.002-0.536-0.274-0.699c-0.482-0.293-1.424-0.733-2.804-1.33c-0.011-0.542-0.068-1.079-0.173-1.614L91.1,27.3     c0.136-0.12,0.227-0.242,0.267-0.369c0.067-0.231-0.159-0.836-0.685-1.818c-0.522-0.979-0.938-1.667-1.241-2.07     c-0.077-0.123-0.184-0.209-0.321-0.249c-0.135-0.04-0.284-0.027-0.446,0.041c-1.145,0.482-2.039,0.832-2.678,1.044     c-0.327-0.327-0.743-0.673-1.254-1.042l0.429-3.053c0.012-0.131-0.024-0.259-0.115-0.378c-0.089-0.116-0.203-0.195-0.325-0.234     l-3.509-1.04c-0.136-0.04-0.275-0.032-0.408,0.016c-0.132,0.053-0.231,0.143-0.292,0.274l-1.305,2.757     c-0.548,0.009-1.13,0.074-1.74,0.189c-0.207-0.264-0.491-0.66-0.855-1.181c-0.368-0.521-0.64-0.894-0.813-1.117     c-0.09-0.12-0.202-0.198-0.325-0.237c-0.147-0.042-0.274-0.039-0.385,0.008c-0.645,0.223-1.796,0.824-3.454,1.812     c-0.142,0.096-0.237,0.211-0.277,0.349c-0.045,0.158-0.034,0.297,0.03,0.42l1.026,2.745c-0.351,0.366-0.683,0.782-1.007,1.25     l-3.039-0.423c-0.135-0.027-0.269-0.002-0.389,0.083c-0.125,0.084-0.206,0.202-0.249,0.346l-1.04,3.509     c-0.091,0.306-0.002,0.538,0.271,0.698c0.486,0.295,1.418,0.737,2.803,1.329c0.013,0.544,0.068,1.08,0.17,1.616l-2.332,1.68     c-0.146,0.106-0.242,0.227-0.281,0.364c-0.068,0.23,0.162,0.84,0.691,1.828c0.525,0.985,0.936,1.674,1.232,2.057     c0.113,0.136,0.216,0.221,0.324,0.251c0.124,0.038,0.27,0.022,0.422-0.045c1.063-0.451,1.957-0.799,2.683-1.044     c0.407,0.407,0.829,0.756,1.271,1.047l-0.427,3.068c-0.017,0.122,0.021,0.241,0.111,0.361c0.092,0.119,0.203,0.198,0.328,0.235     l3.506,1.041C77.609,43.46,77.747,43.452,77.881,43.4"/>
		</g>
		<g>
			<path fill="#6F93B5" d="M81.832,35.324l-5.128-0.088c-0.938-0.016-1.556-0.596-1.538-1.546c0.022-1.326,0.367-3.356,2.087-3.326     c0.199,0.003,0.915,0.831,2.085,0.851c1.174,0.02,1.916-0.782,2.115-0.78c1.719,0.03,1.994,2.071,1.972,3.397     C83.409,34.782,82.771,35.341,81.832,35.324z"/>
			<path fill="#6F93B5" d="M79.348,30.775c-1.245-0.021-2.237-1.048-2.216-2.292c0.021-1.243,1.048-2.235,2.293-2.214     c1.242,0.021,2.235,1.049,2.215,2.292C81.616,29.805,80.59,30.796,79.348,30.775z"/>
		</g>
	</g>
	<g>
		<path fill="#6F93B5" d="M48.539,80.84H32.49c-2.935,0-4.899-1.781-4.899-4.754c0-4.15,0.973-10.521,6.352-10.521    c0.626,0,2.899,2.553,6.573,2.553c3.67,0,5.948-2.553,6.57-2.553c5.379,0,6.353,6.371,6.353,10.521    C53.439,79.059,51.474,80.84,48.539,80.84z"/>
		<path fill="#6F93B5" d="M40.516,66.741c-3.894,0-7.05-3.159-7.05-7.053c0-3.889,3.156-7.047,7.05-7.047    c3.895,0,7.049,3.158,7.049,7.047C47.565,63.582,44.411,66.741,40.516,66.741z"/>
	</g>
</g>
</svg>